# xmcd CD database file
#
# Track frame offsets:
#	150
#	14648
#	28460
#	43955
#	55198
#	66685
#	79745
#	92098
#	104615
#	119645
#	132575
#	145873
#	159763
#	173380
#	188520
#	201970
#	213553
#	227330
#	241495
#
# Disc length: 3411 seconds
#
# Revision: 0
# Processed by: cddbd v1.4PL0 Copyright (c) Steve Scherf et al.
# Submitted via: CDex 1.50Beta7
#
DISCID=180d5113
DTITLE=Dinah Washington - The Complete Dinah Washington On Mercury, Volume 2 (1950-1952)CD1
DYEAR=1900
DGENRE=Jazz
TTITLE0=Journey's End
TTITLE1=It Isn't Far
TTITLE2=My Kind Of Man
TTITLE3=If I Loved You
TTITLE4=Why Don't You Think Things Over
TTITLE5=Big Deal
TTITLE6=Big Deal
TTITLE7=I'll Never Be Free
TTITLE8=I Wanna Be Loved
TTITLE9=I Wanna Be Loved
TTITLE10=Love Me With Misery
TTITLE11=Harbor Lights
TTITLE12=I Cross My Fingers
TTITLE13=Time Out For Tears
TTITLE14=Only A Moment Ago
TTITLE15=Fine Fine Daddy
TTITLE16=Please Send Me Someone To Love
TTITLE17=Ain't Nobody'a Business But My Own
TTITLE18=I'm So Lonely I Could Cry
EXTD=
EXTT0=
EXTT1=
EXTT2=
EXTT3=
EXTT4=
EXTT5=
EXTT6=
EXTT7=
EXTT8=
EXTT9=
EXTT10=
EXTT11=
EXTT12=
EXTT13=
EXTT14=
EXTT15=
EXTT16=
EXTT17=
EXTT18=
PLAYORDER=
